<?xml version="1.0" encoding="UTF-8" standalone="no"?><!DOCTYPE svg PUBLIC "-//W3C//DTD SVG 1.1//EN" "http://www.w3.org/Graphics/SVG/1.1/DTD/svg11.dtd"><svg width="100%" height="100%" viewBox="0 0 900 400" version="1.1" xmlns="http://www.w3.org/2000/svg" xmlns:xlink="http://www.w3.org/1999/xlink" xml:space="preserve" xmlns:serif="http://www.serif.com/" style="fill-rule:evenodd;clip-rule:evenodd;stroke-miterlimit:10;"><rect id="hr" x="56.06" y="334.281" width="787.881" height="0.786" style="fill:#444;"/><text id="slogan-pdf" x="253.753px" y="365.969px" style="font-family:'OpenSansLight-Italic', 'Open Sans', sans-serif;font-weight:300;font-style:italic;font-size:18px;fill:#444;">ﬂuently gener<tspan x="355.258px 365.216px " y="365.969px 365.969px ">at</tspan>e asset urls for img-pr<tspan x="535.803px 545.322px 553.425px " y="365.969px 365.969px 365.969px ">oxy</tspan> within java</text><g><rect x="460.183" y="96.969" width="321.1" height="237.591" style="fill:#fff;"/><rect x="460.183" y="96.97" width="321.1" height="12.667" style="fill:#35607b;"/><rect x="460.183" y="109.637" width="11.341" height="224.923" style="fill:#002b46;"/><rect x="768.142" y="109.637" width="13.141" height="224.923" style="fill:#002b46;"/><path d="M469.998,103.258c0,1.706 -1.383,3.089 -3.089,3.089c-1.707,0 -3.09,-1.383 -3.09,-3.089c0,-1.707 1.383,-3.09 3.09,-3.09c1.706,0 3.089,1.383 3.089,3.09" style="fill:#28234f;fill-rule:nonzero;"/><path d="M479.374,103.258c0,1.706 -1.384,3.089 -3.09,3.089c-1.706,0 -3.09,-1.383 -3.09,-3.089c0,-1.707 1.384,-3.09 3.09,-3.09c1.706,0 3.09,1.383 3.09,3.09" style="fill:#28234f;fill-rule:nonzero;"/><path d="M488.793,103.258c0,1.706 -1.383,3.089 -3.089,3.089c-1.708,0 -3.09,-1.383 -3.09,-3.089c0,-1.707 1.382,-3.09 3.09,-3.09c1.706,0 3.089,1.383 3.089,3.09" style="fill:#28234f;fill-rule:nonzero;"/><rect x="519.819" y="151.95" width="198.326" height="130.28" style="fill:#e9e4e3;"/><rect x="471.526" y="109.637" width="296.618" height="11.178" style="fill:#929292;"/><path d="M781.284,260.4c0,0 1.305,-0.262 3.445,-0.925" style="fill:none;fill-rule:nonzero;stroke:#0074bd;stroke-width:1px;"/><path d="M791.65,256.85c7.616,-3.417 17.678,-9.756 23.894,-20.878c11.049,-19.774 8.724,-39.269 -5.817,-51.623c-10.048,-8.537 -14.542,-14.601 -15.591,-20.092" style="fill:none;fill-rule:nonzero;stroke:#0074bd;stroke-width:1px;stroke-dasharray:8.3,8.3;"/><path d="M793.932,160.565c0.091,-1.166 0.322,-2.324 0.674,-3.496" style="fill:none;fill-rule:nonzero;stroke:#0074bd;stroke-width:1px;"/><path d="M460.184,166.761c0,0 -1.303,-0.316 -3.517,-0.587" style="fill:none;fill-rule:nonzero;stroke:#0074bd;stroke-width:1px;"/><path d="M449.321,165.797c-6.929,0.122 -16.163,1.628 -24.615,7.362c-16.285,11.05 -22.682,37.223 0,61.069c17.909,18.826 27.479,26.778 32.431,34.729" style="fill:none;fill-rule:nonzero;stroke:#0074bd;stroke-width:1px;stroke-dasharray:8.25,8.25;"/><path d="M458.896,272.196c0.498,1.074 0.925,2.175 1.288,3.326" style="fill:none;fill-rule:nonzero;stroke:#0074bd;stroke-width:1px;"/><path d="M539.535,252.568c0,0 1.803,-21.545 9.558,-29.578c7.754,-8.032 17.06,-2.679 21.325,4.531c4.265,7.211 11.548,-24.195 25.549,-35.827c14,-11.633 22.918,1.357 29.122,17.932c6.203,16.576 23.959,12.311 32.53,-2.811c8.569,-15.121 10.896,-25.202 24.467,-23.652c13.571,1.552 11.632,69.405 11.632,69.405l-154.183,0Z" style="fill:#c8eaff;fill-rule:nonzero;"/><path d="M550.961,252.568c0,0 1.802,-21.545 9.557,-29.578c7.754,-8.032 17.059,-2.679 21.325,4.531c4.265,7.211 11.548,-24.195 25.549,-35.827c14,-11.633 22.917,1.357 29.121,17.932c6.203,16.576 23.959,12.311 32.53,-2.811c8.571,-15.121 10.897,-25.202 24.468,-23.652c13.57,1.552 11.631,69.405 11.631,69.405" style="fill:none;fill-rule:nonzero;stroke:#0074bd;stroke-width:1px;"/><path d="M572.149,185.242c0,6.631 -5.375,12.007 -12.006,12.007c-6.631,0 -12.006,-5.376 -12.006,-12.007c0,-6.631 5.375,-12.006 12.006,-12.006c6.631,0 12.006,5.375 12.006,12.006" style="fill:#c8eaff;fill-rule:nonzero;"/><path d="M578.65,185.242c0,-6.626 -5.38,-12.006 -12.006,-12.006c-6.627,0 -12.007,5.38 -12.007,12.006c0,6.627 5.38,12.007 12.007,12.007c6.626,0 12.006,-5.38 12.006,-12.007Z" style="fill:none;stroke:#0074bd;stroke-width:1px;"/></g><g><path d="M771.332,94.938l-30.53,-33.646l1.285,-1.167l30.53,33.646l-1.285,1.167Z" style="fill:#98a6b1;fill-rule:nonzero;"/><path d="M741.444,61.757c2.455,0 4.452,-1.997 4.452,-4.452l-1.048,0c0,1.877 -1.526,3.404 -3.404,3.404c-1.877,0 -3.403,-1.527 -3.403,-3.404c0,-1.877 1.526,-3.404 3.403,-3.404l0.526,0l0,-53.901l-1.049,0l0,52.883c-2.21,0.26 -3.929,2.144 -3.929,4.422c0,2.455 1.997,4.452 4.452,4.452Z" style="fill:#385369;fill-rule:nonzero;"/><rect x="740.237" y="27.202" width="2.507" height="25.453" style="fill:#98a6b1;fill-rule:nonzero;"/><path d="M711.602,94.938l-1.285,-1.168l31.199,-34.344l1.142,1.326l-31.056,34.186Z" style="fill:#98a6b1;fill-rule:nonzero;"/><path d="M792.928,127.949c3.562,-2.674 6.881,-5.601 9.939,-8.747l-28.609,-29.65c-4.287,4.662 -9.64,8.486 -15.883,11.056c-17.973,7.397 -37.982,2.229 -50.274,-11.442l-28.08,30.216c2.963,3.027 6.132,5.81 9.477,8.336l-3.266,16.461l16.824,7.013l16.829,7.009l9.384,-13.912c7.806,1.118 15.82,1.168 23.825,0.064l9.319,13.94l16.857,-6.944l16.857,-6.943l-3.199,-16.457Z" style="fill:#c6c6c6;stroke:#7b7b7b;stroke-width:0.9px;stroke-linejoin:round;stroke-miterlimit:2;"/></g><path d="M247.719,238.844c0.64,0 0.96,-0.32 0.96,-0.96c-0.24,0.08 -0.52,0.18 -0.84,0.3c-0.32,0.12 -0.48,0.34 -0.48,0.66l0.36,0Zm-2.04,27.12c-0.24,0 -0.42,0.22 -0.54,0.66c-0.12,0.44 -0.18,0.74 -0.18,0.9c0.32,0 0.52,-0.18 0.6,-0.54c0.08,-0.36 0.16,-0.62 0.24,-0.78l-0.12,-0.24Zm18.72,-15.6l0,-0.84c-0.48,0 -0.76,0.28 -0.84,0.84l0.84,0Zm-16.56,16.92l0.72,-0.72l-0.36,-0.24l-0.36,0.24l-0.36,-0.12l-0.12,0.48l0.48,0.36Zm3.36,-14.88l0.24,-0.36l-0.24,-0.48l-0.6,0.48l0.6,0.36Zm-4.2,-11.16l-0.36,-0.36l-0.48,0.36l0.48,0.24l0.36,-0.24Zm-17.52,9.12l0.36,-0.72l-0.36,0.24l-0.48,-0.24l0.48,0.72Zm33.72,-1.56l-0.36,-0.24l-0.48,0.24l0.48,0.24l0.36,-0.24Zm-8.4,-1.56c-0.16,-0.08 -0.32,-0.18 -0.48,-0.3c-0.16,-0.12 -0.32,-0.18 -0.48,-0.18c0,0.32 0.24,0.48 0.72,0.48l0.24,0Zm-8.64,13.32l-0.36,-0.24l-0.36,0.24l0.36,0.24l0.36,-0.24Zm-17.16,-13.32l0,-0.48l-0.36,0l0,0.48l0.36,0Zm18.24,22.2l0.12,-0.12l-0.72,-0.72l0,0.24l0.6,0.6Zm-0.24,-22.2l0,-0.84l-0.36,0.84l0.36,0Zm8.16,2.28l0.24,-0.36l-0.24,-0.12l-0.36,0.12l0.36,0.36Zm-10.56,3.24l0,-0.36l-0.36,0l0,0.36l0.36,0Zm1.56,0.84l0,-0.36l-0.36,0l0,0.36l0.36,0Zm0.84,9.36l0,-0.36l-0.36,0l0,0.36l0.36,0Zm4.2,-12.96l-0.6,0c0,0.16 0.12,0.24 0.36,0.24l0.24,-0.24Zm8.76,-0.84l0.24,-0.36l-0.24,-0.36l0,0.72Zm-5.76,1.32l0.24,-0.24l-0.24,-0.24l-0.12,0.24l0.12,0.24Zm-4.32,-10.44l0.24,-0.24l-0.24,-0.24l-0.12,0.24l0.12,0.24Zm-1.32,30.12l0,-0.36l-0.36,0.36l0.36,0Zm-0.36,-38.52l-0.12,-0.24l-0.24,0.24l0.12,0.12l0.24,-0.12Zm3.6,13.92l0,-0.36l-0.36,0l0.36,0.36Zm0.24,3.12l-0.24,-0.24l-0.12,0.12l0.12,0.24l0.24,-0.12Zm-4.44,3.12l0.24,-0.24l-0.48,0l0.24,0.24Zm1.2,6.84l0.24,-0.24l-0.48,0l0.24,0.24Zm12,-11.4l0,-0.48l-0.24,0.24l0.24,0.24Zm-3.24,1.56l0,-0.36l-0.12,0l-0.12,0.12l0.24,0.24Zm7.2,-2.4l0,-0.36l-0.12,0.12l0.12,0.24Zm-13.32,22.44l-0.12,-0.12l-0.24,0.12l0.36,0Zm-2.4,-7.2l0,-0.12l-0.12,-0.12l-0.24,0.24l0.36,0Zm-3.12,-9.72l0,-0.48l-0.24,0.24l0.24,0.24Zm-6.84,1.2l0,-0.48l-0.24,0.24l0.24,0.24Zm11.64,11.76l-0.24,-0.24l-0.24,0.24l0.48,0Zm-1.92,-8.76l0.24,-0.24l-0.12,-0.12l-0.24,0.12l0.12,0.24Zm3.48,-0.24l0,-0.36l-0.36,0.36l0.36,0Zm13.8,-3.72l-0.24,-0.24l-0.12,0.12l0.12,0.24l0.24,-0.12Zm-38.4,0.48l-0.36,-0.36l0,0.36l0.36,0Zm30,1.56l0.24,-0.24l-0.24,-0.12l-0.24,0.12l0.24,0.24Zm-10.44,4.32l0.24,-0.24l-0.24,-0.12l-0.24,0.12l0.24,0.24Zm1.8,5.52l-0.72,0l0.36,0.24l0.36,-0.24Zm-1.56,-8.76l0,-0.6c-0.16,0 -0.24,0.12 -0.24,0.36l0.24,0.24Zm-12.6,-4.2l0,-0.36l-0.36,0l0,0.36l0.36,0Zm10.2,-2.4l0,-0.36l-0.36,0l0,0.36l0.36,0Zm-0.84,1.56l0,-0.36l-0.36,0l0,0.36l0.36,0Zm4.08,9.24l0.12,-0.24l-0.12,-0.36l-0.36,0.36l0.36,0.24Zm2.76,-8.4l-0.84,-0.36l0,0.36l0.84,0Zm-22.92,0.36l0.72,-0.72l-0.24,0l-0.6,0.6l0.12,0.12Zm8.76,-1.2l0.24,-0.36l-0.24,-0.36l-0.24,0.36l0.24,0.36Zm13.8,-17.16l0,-0.36l-0.48,0l0,0.36l0.48,0Zm-0.48,25.8c0.08,-0.16 0.18,-0.32 0.3,-0.48c0.12,-0.16 0.18,-0.32 0.18,-0.48c-0.32,0 -0.48,0.24 -0.48,0.72l0,0.24Zm-1.56,8.4l0.24,-0.36l-0.24,-0.48l0,0.84Zm-0.84,-33.36l-0.24,-0.36l0.24,-0.48l-0.72,0.48l0.72,0.36Zm8.4,17.16l0.36,-0.36l-0.36,-0.48l-0.24,0.48l0.24,0.36Zm-10.32,4.2l-0.48,-0.6l-0.36,0.6l0.36,0.24l0.48,-0.24Zm-15,-2.64l0.24,-0.36l-0.24,-0.36l-0.12,0.12l-0.24,-0.6l-0.36,0.48l0.72,0.72Zm17.04,15.84c0,-0.48 -0.28,-0.76 -0.84,-0.84l0,0.84l0.84,0Zm-16.44,-18.72c0,-0.24 -0.22,-0.42 -0.66,-0.54c-0.44,-0.12 -0.74,-0.18 -0.9,-0.18c0,0.32 0.18,0.52 0.54,0.6c0.36,0.08 0.62,0.16 0.78,0.24l0.24,-0.12Zm27.12,2.04c0,0.64 0.32,0.96 0.96,0.96c-0.08,-0.24 -0.18,-0.52 -0.3,-0.84c-0.12,-0.32 -0.34,-0.48 -0.66,-0.48l0,0.36Zm-3.72,18.24c0,1.04 -0.06,1.96 -0.18,2.76c-0.12,0.8 -0.86,1.2 -2.22,1.2c-1.6,0 -3.2,-0.04 -4.8,-0.12c-1.6,-0.08 -3.2,-0.2 -4.8,-0.36c-0.32,-1.2 -0.46,-2.6 -0.42,-4.2c0.04,-1.6 0.06,-3.22 0.06,-4.86c0,-1.64 -0.08,-3.16 -0.24,-4.56c-0.16,-1.4 -0.52,-2.5 -1.08,-3.3c-2.64,0.24 -5.52,0.36 -8.64,0.36c-3.12,0 -5.96,-0.44 -8.52,-1.32c0,-1.12 -0.04,-2.2 -0.12,-3.24c-0.08,-1.04 -0.12,-2.12 -0.12,-3.24c0,-1.76 0.2,-2.9 0.6,-3.42c0.4,-0.52 1.56,-0.78 3.48,-0.78c2.32,0 4.68,0.02 7.08,0.06c2.4,0.04 4.76,-0.06 7.08,-0.3c0.24,-2.48 0.36,-5.04 0.36,-7.68c0,-0.8 -0.08,-1.74 -0.24,-2.82c-0.16,-1.08 -0.22,-2.14 -0.18,-3.18c0.04,-1.04 0.28,-1.92 0.72,-2.64c0.44,-0.72 1.22,-1.08 2.34,-1.08c1.2,0 2.36,-0.04 3.48,-0.12c1.12,-0.08 2.12,-0.02 3,0.18c0.88,0.2 1.6,0.62 2.16,1.26c0.56,0.64 0.84,1.68 0.84,3.12l0,5.4c0,1.2 -0.06,2.28 -0.18,3.24c-0.12,0.96 -0.1,1.78 0.06,2.46c0.16,0.68 0.54,1.22 1.14,1.62c0.6,0.4 1.58,0.6 2.94,0.6c2.16,0 4.38,-0.08 6.66,-0.24c2.28,-0.16 4.46,0 6.54,0.48c0.24,1.2 0.38,2.48 0.42,3.84c0.04,1.36 0.06,2.68 0.06,3.96l0,1.8c0,0.56 -0.08,1.16 -0.24,1.8c-2.8,0.32 -5.6,0.44 -8.4,0.36c-2.8,-0.08 -5.6,-0.04 -8.4,0.12c-0.16,1.36 -0.24,2.66 -0.24,3.9l0,8.94Z" style="fill-rule:nonzero;"/><g><path id="XMLID_16_" d="M316.642,260.312c0,0 -3.719,2.147 2.645,2.875c7.705,0.882 11.654,0.767 20.126,-0.843c0,0 2.223,1.418 5.366,2.606c-19.052,8.166 -43.088,-0.46 -28.137,-4.638Z" style="fill:#0074bd;fill-rule:nonzero;"/><path id="XMLID_15_" d="M314.303,249.655c0,0 -4.178,3.105 2.185,3.757c8.242,0.843 14.721,0.92 25.991,-1.265c0,0 1.572,1.571 3.987,2.453c-22.962,6.709 -48.608,0.498 -32.163,-4.945Z" style="fill:#0074bd;fill-rule:nonzero;"/><path id="XMLID_14_" d="M333.931,231.561c4.676,5.405 -1.227,10.274 -1.227,10.274c0,0 11.922,-6.134 6.44,-13.839c-5.098,-7.169 -9.047,-10.734 12.191,-23.039c0,-0.039 -33.313,8.28 -17.404,26.604Z" style="fill:#ea2d2e;fill-rule:nonzero;"/><path id="XMLID_13_" d="M359.117,268.17c0,0 2.76,2.262 -3.029,4.026c-11.002,3.335 -45.771,4.331 -55.393,0.115c-3.451,-1.495 3.028,-3.604 5.098,-4.064c2.147,-0.46 3.335,-0.383 3.335,-0.383c-3.872,-2.722 -24.956,5.328 -10.695,7.667c38.794,6.325 70.766,-2.799 60.684,-7.361Z" style="fill:#0074bd;fill-rule:nonzero;"/><path id="XMLID_12_" d="M318.443,238.614c0,0 -17.672,4.217 -6.248,5.712c4.83,0.652 14.414,0.499 23.384,-0.268c7.322,-0.613 14.682,-1.917 14.682,-1.917c0,0 -2.568,1.112 -4.447,2.377c-17.94,4.715 -52.633,2.53 -42.666,-2.3c8.434,-4.064 15.295,-3.604 15.295,-3.604Z" style="fill:#0074bd;fill-rule:nonzero;"/><path id="XMLID_11_" d="M350.146,256.325c18.248,-9.469 9.814,-18.592 3.91,-17.366c-1.456,0.307 -2.07,0.576 -2.07,0.576c0,0 0.537,-0.844 1.572,-1.189c11.654,-4.102 20.624,12.076 -3.757,18.477c0,0 0.269,-0.268 0.345,-0.498Z" style="fill:#0074bd;fill-rule:nonzero;"/><path id="XMLID_10_" d="M339.144,185.061c0,0 10.121,10.12 -9.583,25.646c-15.794,12.459 -3.604,19.589 0,27.716c-9.239,-8.319 -15.986,-15.641 -11.463,-22.464c6.671,-9.967 25.11,-14.836 21.046,-30.898Z" style="fill:#ea2d2e;fill-rule:nonzero;"/><path id="XMLID_9_" d="M320.207,282.048c17.519,1.111 44.43,-0.614 45.081,-8.932c0,0 -1.226,3.143 -14.49,5.635c-14.951,2.798 -33.39,2.492 -44.353,0.69c0.038,0 2.261,1.878 13.762,2.607Z" style="fill:#0074bd;fill-rule:nonzero;"/><path d="M364.483,296.921l-0.536,0l0,-0.306l1.418,0l0,0.306l-0.537,0l0,1.495l-0.383,0l0.038,-1.495Zm2.875,0.077l-0.536,1.418l-0.23,0l-0.537,-1.418l0,1.418l-0.345,0l0,-1.801l0.498,0l0.499,1.265l0.498,-1.265l0.498,0l0,1.801l-0.345,0l0,-1.418Z" style="fill:#ea2d2e;fill-rule:nonzero;"/><path d="M317.37,313.712c-1.648,1.418 -3.412,2.223 -4.983,2.223c-2.224,0 -3.451,-1.341 -3.451,-3.488c0,-2.338 1.304,-4.025 6.479,-4.025l1.917,0l0,5.29l0.038,0Zm4.562,5.137l0,-15.909c0,-4.063 -2.338,-6.747 -7.897,-6.747c-3.258,0 -6.134,0.805 -8.472,1.84l0.652,2.837c1.84,-0.69 4.217,-1.303 6.517,-1.303c3.22,0 4.6,1.303 4.6,3.986l0,2.032l-1.572,0c-7.82,0 -11.347,3.029 -11.347,7.59c0,3.949 2.338,6.172 6.709,6.172c2.798,0 4.906,-1.15 6.9,-2.875l0.345,2.415l3.565,0l0,-0.038Z" style="fill:#ea2d2e;fill-rule:nonzero;"/><path id="XMLID_4_" d="M337.151,318.849l-5.674,0l-6.862,-22.273l4.984,0l4.255,13.686l0.958,4.102c2.147,-5.942 3.68,-11.999 4.409,-17.788l4.83,0c-1.342,7.361 -3.642,15.411 -6.9,22.273Z" style="fill:#ea2d2e;fill-rule:nonzero;"/><path d="M358.963,313.712c-1.648,1.418 -3.412,2.223 -4.983,2.223c-2.224,0 -3.45,-1.341 -3.45,-3.488c0,-2.338 1.303,-4.025 6.478,-4.025l1.917,0l0.038,5.29Zm4.562,5.137l0,-15.909c0,-4.063 -2.338,-6.747 -7.935,-6.747c-3.259,0 -6.134,0.805 -8.472,1.84l0.651,2.837c1.841,-0.69 4.217,-1.303 6.517,-1.303c3.22,0 4.601,1.303 4.601,3.986l0,2.032l-1.611,0c-7.82,0 -11.347,3.029 -11.347,7.59c0,3.949 2.339,6.172 6.709,6.172c2.837,0 4.907,-1.15 6.9,-2.875l0.345,2.415l3.642,0l0,-0.038Z" style="fill:#ea2d2e;fill-rule:nonzero;"/><path id="XMLID_2_" d="M299.391,322.644c-1.303,1.917 -3.412,3.412 -5.712,4.255l-2.261,-2.645c1.763,-0.882 3.258,-2.338 3.948,-3.68c0.613,-1.188 0.843,-2.76 0.843,-6.44l0,-25.416l4.831,0l0,25.071c0.038,4.907 -0.345,6.9 -1.649,8.855Z" style="fill:#ea2d2e;fill-rule:nonzero;"/></g><path d="M219.957,175.92l-6.162,0l0,-23.773l6.164,0l0,23.773l-0.002,0Zm-6.523,-29.927c0,-0.951 0.308,-1.734 0.926,-2.35c0.615,-0.615 1.455,-0.923 2.517,-0.923c1.048,0 1.885,0.306 2.507,0.923c0.624,0.616 0.937,1.399 0.937,2.35c0,0.969 -0.318,1.759 -0.947,2.375c-0.632,0.613 -1.464,0.921 -2.497,0.921c-1.033,0 -1.867,-0.306 -2.497,-0.921c-0.632,-0.616 -0.946,-1.406 -0.946,-2.375Zm16.163,6.154l0.194,2.657c1.628,-2.064 3.831,-3.098 6.607,-3.098c2.962,0 4.994,1.209 6.101,3.626c1.614,-2.417 3.915,-3.626 6.905,-3.626c2.493,0 4.349,0.75 5.568,2.253c1.219,1.502 1.826,3.76 1.826,6.779l0,15.182l-6.161,0l0,-15.16c0,-1.349 -0.255,-2.334 -0.766,-2.955c-0.51,-0.624 -1.409,-0.934 -2.699,-0.934c-1.84,0 -3.116,0.907 -3.823,2.723l0.02,16.326l-6.141,0l0,-15.14c0,-1.375 -0.263,-2.372 -0.787,-2.988c-0.524,-0.615 -1.416,-0.921 -2.678,-0.921c-1.743,0 -3.002,0.746 -3.783,2.242l0,16.807l-6.141,0l0,-23.773l5.76,0l-0.002,0Zm29.851,11.711c0,-3.648 0.84,-6.583 2.519,-8.811c1.678,-2.228 3.942,-3.341 6.787,-3.341c2.524,0 4.484,0.895 5.889,2.681l0.254,-2.242l5.569,0l0,22.984c0,2.079 -0.457,3.889 -1.372,5.428c-0.905,1.53 -2.249,2.755 -3.856,3.515c-1.657,0.806 -3.6,1.207 -5.823,1.207c-1.686,0 -3.329,-0.346 -4.931,-1.043c-1.6,-0.695 -2.812,-1.592 -3.634,-2.691l2.723,-3.87c1.529,1.773 3.386,2.659 5.567,2.659c1.63,0 2.898,-0.45 3.805,-1.351c0.907,-0.901 1.359,-2.181 1.359,-3.834l0,-1.275c-1.416,1.657 -3.281,2.484 -5.588,2.484c-2.762,0 -4.998,-1.117 -6.706,-3.351c-1.706,-2.234 -2.56,-5.197 -2.56,-8.888l0,-0.265l-0.002,0.004Zm6.141,0.461c0,2.152 0.418,3.842 1.254,5.064c0.835,1.223 1.985,1.835 3.444,1.835c1.869,0 3.208,-0.726 4.015,-2.175l0,-9.997c-0.821,-1.451 -2.146,-2.175 -3.974,-2.175c-1.474,0 -2.629,0.622 -3.473,1.867c-0.844,1.243 -1.264,3.104 -1.264,5.581l-0.002,0Zm39.115,-0.066c0,3.661 -0.803,6.596 -2.412,8.799c-1.608,2.205 -3.778,3.308 -6.514,3.308c-2.323,0 -4.198,-0.836 -5.631,-2.507l0,11.208l-6.141,0l0,-32.916l5.695,0l0.214,2.329c1.487,-1.844 3.428,-2.768 5.823,-2.768c2.833,0 5.034,1.085 6.607,3.253c1.574,2.167 2.359,5.157 2.359,8.964l0,0.33Zm-6.141,-0.462c0,-2.212 -0.38,-3.918 -1.138,-5.12c-0.756,-1.201 -1.859,-1.8 -3.302,-1.8c-1.928,0 -3.252,0.76 -3.974,2.283l0,9.734c0.75,1.57 2.089,2.352 4.015,2.352c2.933,0 4.399,-2.482 4.399,-7.449Zm21.69,-5.691c-0.732,-0.109 -1.47,-0.167 -2.21,-0.175c-2.323,0 -3.848,0.813 -4.569,2.44l0,15.555l-6.141,0l0,-23.773l5.8,0l0.17,2.833c1.233,-2.181 2.941,-3.274 5.121,-3.274c0.681,0 1.319,0.096 1.914,0.286l-0.085,6.108Zm0.055,5.713c0,-2.358 0.44,-4.459 1.318,-6.306c0.877,-1.845 2.143,-3.273 3.793,-4.284c1.651,-1.011 3.567,-1.517 5.748,-1.517c3.104,0 5.636,0.983 7.598,2.946c1.961,1.962 3.058,4.626 3.282,7.997l0.043,1.625c0,3.648 -0.985,6.575 -2.954,8.778c-1.969,2.205 -4.61,3.308 -7.926,3.308c-3.314,0 -5.96,-1.101 -7.937,-3.296c-1.977,-2.197 -2.965,-5.187 -2.965,-8.966l0,-0.285Zm6.143,0.461c0,2.256 0.409,3.98 1.231,5.177c0.823,1.192 1.997,1.789 3.528,1.789c1.488,0 2.65,-0.591 3.485,-1.769c0.836,-1.18 1.254,-3.065 1.254,-5.658c0,-2.211 -0.418,-3.925 -1.254,-5.142c-0.835,-1.215 -2.012,-1.822 -3.526,-1.822c-1.502,0 -2.664,0.603 -3.485,1.814c-0.824,1.206 -1.233,3.077 -1.233,5.611Zm26.555,-5.03l3.866,-7.097l6.567,0l-6.544,11.644l6.822,12.129l-6.588,0l-4.103,-7.47l-4.08,7.47l-6.608,0l6.822,-12.127l-6.524,-11.646l6.587,0l3.783,7.097Zm20.798,7.69l4.249,-14.787l6.587,0l-9.243,27.464l-0.509,1.253c-1.376,3.105 -3.642,4.658 -6.802,4.658c-0.892,0 -1.799,-0.139 -2.721,-0.418l0,-4.81l0.938,0.02c1.162,0 2.028,-0.183 2.601,-0.55c0.575,-0.367 1.025,-0.972 1.349,-1.822l0.724,-1.957l-8.055,-23.838l6.61,0l4.272,14.787Zm-183.38,45.748l-0.137,-0.289l-9.035,-21.307l1.946,1.912l0,-6.639l-7.021,0l0,6.893l3.77,0l0,-1.653l9.056,21.346l0.12,0.253l-9.178,9.011l0,-26.197l-6.579,0l0,-3.446l-29.492,0l0,3.446l-12.637,0l0,-3.446l-29.494,0l0,3.446l-12.637,0l0,-12.406l3.512,0l0,-15.166l-3.512,0l0,-12.411l3.512,0l0,-15.164l-3.512,0l0,-12.412l12.639,0l0,3.447l29.492,0l0,-3.447l12.637,0l0,3.447l29.492,0l0,-3.447l12.639,0l0,12.408l-3.51,0l0,15.166l3.51,0l0,12.411l-3.51,0l0,15.164l3.51,0l0,12.155l17.239,16.925l-12.82,0Zm-56.378,-81.471l0,6.893l7.021,0l0,-6.893l-7.021,0Zm-42.131,6.893l7.021,0l0,-6.893l-7.021,0l0,6.893Zm0,27.576l7.021,0l0,-6.895l-7.021,0l0,6.895Zm7.021,27.576l0,-6.895l-7.021,0l0,6.893l7.021,0l0,0.002Zm42.129,0l0,-6.895l-7.017,0l0,6.893l7.021,0l-0.004,0.002Zm42.131,-34.471l-7.019,0l0,6.895l7.021,0l0,-6.895l-0.002,0Zm-7.019,-20.681l7.021,0l0,-6.893l-7.021,0l0,6.893Zm-2.811,48.946l0,-3.446l3.512,0l0,-15.166l-3.514,0l0,-12.411l3.512,0l0,-15.162l-3.512,0l0,-3.452l-29.492,0l0,3.446l-12.637,0l0,-3.444l-29.492,0l0,3.444l-3.506,0l0,15.166l3.506,0l0,12.411l-3.506,0l0,15.164l3.506,0l0,3.448l29.492,0l0,-3.446l12.637,0l0,3.446l29.492,0l0.002,0.002Zm-34.404,-29.643l0,3.447l3.51,0l0,2.757l-3.512,0l0,3.447l-2.809,0l0,-3.447l-3.509,0l0,-2.757l3.509,0l0,-3.447l2.811,0Z" style="fill-rule:nonzero;"/><path d="M488.453,318.585l0,-1.177c12.279,0 23.168,-7.363 27.74,-18.757l1.092,0.439c-4.751,11.843 -16.069,19.495 -28.832,19.495Z" style="fill:#1f1f1f;"/><path d="M459.43,350.028l-20.931,-14.896l4.681,-10.486c-3.326,-4.003 -6.105,-8.444 -8.267,-13.213l-11.491,-0.363l-4.268,-25.331l10.738,-4.11c0.479,-5.213 1.649,-10.319 3.48,-15.193l-7.857,-8.373l14.892,-20.932l10.487,4.682c4,-3.323 8.444,-6.103 13.216,-8.267l0.364,-11.488l25.331,-4.271l4.106,10.738c5.214,0.479 10.323,1.649 15.196,3.48l8.374,-7.857l20.93,14.892l-4.68,10.487c3.326,4.008 6.105,8.451 8.268,13.216l11.486,0.364l4.267,25.331l-10.733,4.106c-0.212,2.292 -0.561,4.591 -1.04,6.844l-0.127,0.595l-28.258,-6.962l0.1,-0.545c2.077,-11.317 -2.636,-22.938 -12.006,-29.605c-13.353,-9.503 -31.948,-6.37 -41.45,6.984c-9.501,13.351 -6.368,31.946 6.984,41.452c2.791,1.985 5.855,3.459 9.105,4.38l0.52,0.147l-5.418,28.617l-0.601,-0.141c-2.37,-0.561 -4.731,-1.279 -7.025,-2.139l-8.373,7.857Z" style="fill:#fff;"/><path d="M488.453,327.286l0,-1.178c9.056,0 17.585,-2.963 24.668,-8.571l0.732,0.923c-7.294,5.774 -16.076,8.826 -25.4,8.826Z" style="fill:#1f1f1f;"/><path d="M517.429,329.309l-0.657,-0.974c7.957,-5.377 14.202,-12.85 18.058,-21.612l1.079,0.475c-3.947,8.966 -10.337,16.611 -18.48,22.111Z" style="fill:#1f1f1f;"/><path d="M439.967,334.732l19.36,13.778l8.206,-7.702l0.345,0.132c2.16,0.826 4.386,1.524 6.623,2.079l4.989,-26.35c-3.19,-0.964 -6.199,-2.445 -8.951,-4.404c-13.881,-9.881 -17.138,-29.212 -7.261,-43.093c9.879,-13.883 29.21,-17.14 43.093,-7.261c9.589,6.824 14.487,18.64 12.577,30.231l26.002,6.406c0.431,-2.136 0.743,-4.31 0.928,-6.472l0.031,-0.368l10.523,-4.026l-3.948,-23.428l-11.26,-0.357l-0.15,-0.337c-2.187,-4.905 -5.041,-9.467 -8.481,-13.558l-0.238,-0.282l4.589,-10.279l-19.36,-13.775l-8.207,7.702l-0.345,-0.132c-4.99,-1.911 -10.235,-3.112 -15.589,-3.57l-0.368,-0.032l-4.025,-10.525l-23.429,3.95l-0.357,11.26l-0.337,0.15c-4.914,2.192 -9.475,5.045 -13.558,8.482l-0.282,0.237l-10.279,-4.588l-13.775,19.36l7.702,8.207l-0.132,0.345c-1.911,4.989 -3.112,10.233 -3.57,15.585l-0.032,0.368l-10.525,4.03l3.947,23.428l11.263,0.356l0.15,0.337c2.19,4.909 5.043,9.469 8.482,13.555l0.237,0.283l-4.588,10.278Zm19.463,15.296l-20.931,-14.896l4.681,-10.486c-3.326,-4.003 -6.105,-8.444 -8.267,-13.213l-11.491,-0.363l-4.268,-25.331l10.738,-4.11c0.479,-5.213 1.649,-10.319 3.48,-15.193l-7.857,-8.373l14.892,-20.932l10.487,4.682c4,-3.323 8.444,-6.103 13.216,-8.267l0.364,-11.488l25.331,-4.271l4.106,10.738c5.214,0.479 10.323,1.649 15.196,3.48l8.374,-7.857l20.93,14.892l-4.68,10.487c3.326,4.008 6.105,8.451 8.268,13.216l11.486,0.364l4.267,25.331l-10.733,4.106c-0.212,2.292 -0.561,4.591 -1.04,6.844l-0.127,0.595l-28.258,-6.962l0.1,-0.545c2.077,-11.317 -2.636,-22.938 -12.006,-29.605c-13.353,-9.503 -31.948,-6.37 -41.45,6.984c-9.501,13.351 -6.368,31.946 6.984,41.452c2.791,1.985 5.855,3.459 9.105,4.38l0.52,0.147l-5.418,28.617l-0.601,-0.141c-2.37,-0.561 -4.731,-1.279 -7.025,-2.139l-8.373,7.857Z" style="fill:#494949;"/><path d="M480.577,327.074l0.314,-0.48l-0.579,0.075l0.265,0.405Z" style="fill:#dfe1e8;fill-rule:nonzero;"/><path d="M399.277,264.746c0.456,0.545 0.384,1.357 -0.161,1.813c-0.545,0.456 -1.356,0.384 -1.812,-0.161c-0.457,-0.545 -0.385,-1.357 0.16,-1.813c0.545,-0.456 1.357,-0.384 1.813,0.161Z" style="fill:#fff;fill-rule:nonzero;"/><path d="M668.019,295.896l-14.906,-8.337l5.124,-0.337l9.782,8.674Z" style="fill:#d6d6d6;fill-rule:nonzero;"/><path d="M668.019,295.896l-4.587,-7.378l-3.849,-0.103l8.436,7.481Z" style="fill:#e8e8e8;fill-rule:nonzero;"/><path d="M656.541,289.477l-0.299,1.878l11.777,4.541l-11.478,-6.419Z" style="fill:#c2c2c2;fill-rule:nonzero;"/><path d="M447.539,264.973l-0.09,-0.008c-1.727,-0.153 -3.416,-0.224 -5.027,-0.231c-0.635,0 -1.256,0.012 -1.866,0.035l-0.045,-1.176c0.626,-0.024 1.282,-0.036 1.915,-0.037c1.642,0 3.367,0.08 5.128,0.237l0.087,0.007l-0.102,1.173Zm13.965,1.783c-2.404,-0.386 -4.749,-0.728 -6.97,-1.014l0.15,-1.168c2.233,0.288 4.591,0.631 7.007,1.019l-0.187,1.163Zm-34.368,1.079l-0.513,-1.06c2.068,-1.001 4.354,-1.779 6.792,-2.311l0.251,1.151c-2.348,0.512 -4.545,1.259 -6.53,2.22Zm48.237,1.467c-2.491,-0.503 -4.755,-0.942 -6.924,-1.343l0.213,-1.158c2.176,0.402 4.447,0.843 6.943,1.346l-0.232,1.155Zm13.816,2.909c-2.31,-0.497 -4.613,-0.991 -6.906,-1.477l0.245,-1.152c2.294,0.486 4.596,0.981 6.909,1.478l-0.248,1.151Zm118.91,1.284l-0.088,-1.174c2.409,-0.18 4.795,-0.283 7.096,-0.307l0.011,1.177c-2.274,0.024 -4.636,0.126 -7.019,0.304Zm21.001,0.633c-2.234,-0.345 -4.578,-0.598 -6.966,-0.753l0.075,-1.175c2.424,0.157 4.802,0.414 7.071,0.764l-0.18,1.164Zm-126.082,1.003c-2.317,-0.471 -4.623,-0.953 -6.921,-1.441l0.244,-1.151c2.295,0.486 4.597,0.968 6.913,1.438l-0.236,1.154Zm91.136,0.177l-0.209,-1.158c2.367,-0.429 4.723,-0.798 7.008,-1.098l0.153,1.168c-2.265,0.297 -4.603,0.663 -6.952,1.088Zm-177.146,1.607l-0.996,-0.628c1.313,-2.08 2.871,-3.935 4.629,-5.514l0.787,0.877c-1.678,1.506 -3.165,3.278 -4.42,5.265Zm99.915,0.822c-2.242,-0.377 -4.52,-0.785 -6.965,-1.245l0.218,-1.157c2.437,0.459 4.709,0.865 6.943,1.24l-0.196,1.162Zm125.657,0.007c-2.071,-0.843 -4.301,-1.584 -6.627,-2.199l0.301,-1.138c2.374,0.628 4.652,1.384 6.77,2.248l-0.444,1.089Zm-62.235,0.499l-0.23,-1.155c1.687,-0.334 3.391,-0.704 5.065,-1.101c0.611,-0.145 1.217,-0.285 1.818,-0.421l0.26,1.149c-0.597,0.134 -1.199,0.274 -1.806,0.418c-1.688,0.399 -3.407,0.773 -5.107,1.11Zm-49.405,1.487c-2.273,-0.258 -4.635,-0.561 -7.022,-0.903l0.166,-1.164c2.376,0.339 4.728,0.64 6.989,0.897l-0.133,1.17Zm35.373,0.559l-0.112,-1.172c2.335,-0.222 4.684,-0.506 6.983,-0.84l0.169,1.166c-2.318,0.337 -4.686,0.622 -7.04,0.846Zm-21.248,0.54c-2.308,-0.093 -4.689,-0.234 -7.074,-0.422l0.092,-1.173c2.37,0.185 4.735,0.326 7.029,0.418l-0.047,1.177Zm7.087,0.137l-0.003,-1.177c2.361,-0.005 4.728,-0.064 7.036,-0.173l0.054,1.176c-2.324,0.111 -4.709,0.17 -7.087,0.174Zm101.448,3.64c-0.06,-0.069 -1.513,-1.703 -4.803,-3.736l0.618,-1c3.439,2.122 5.005,3.885 5.07,3.959l-0.885,0.777Zm-241.253,5.306l-1.162,-0.188c0.399,-2.457 0.983,-4.796 1.736,-6.952l1.112,0.389c-0.731,2.091 -1.298,4.362 -1.686,6.751Zm-1.457,14.088c-0.014,-0.097 -0.355,-2.43 -0.355,-5.986c0,-0.376 0.004,-0.766 0.012,-1.167l1.178,0.025c-0.009,0.393 -0.013,0.774 -0.013,1.142c0,3.462 0.34,5.79 0.343,5.814l-1.165,0.172Z" style="fill:#3e3e3e;fill-rule:nonzero;"/></svg>